<svg width="16" height="16" viewBox="0 0 16 16" fill="none" xmlns="http://www.w3.org/2000/svg">
<path fill-rule="evenodd" clip-rule="evenodd" d="M13.9979 6.33122V2.80455C13.9979 2.50455 13.6379 2.35788 13.4312 2.57122L12.2446 3.75788C11.0379 2.55122 9.31789 1.85788 7.43789 2.02455C4.64456 2.27788 2.34456 4.52455 2.03789 7.31788C1.63789 10.9312 4.45789 13.9979 7.99789 13.9979C11.0579 13.9979 13.5846 11.7046 13.9512 8.74455C13.9979 8.34455 13.6846 7.99788 13.2846 7.99788C12.9512 7.99788 12.6712 8.24455 12.6312 8.57122C12.3446 10.8979 10.3379 12.6979 7.93122 12.6645C5.45789 12.6312 3.37122 10.5445 3.33122 8.06455C3.29122 5.46455 5.40456 3.33122 7.99789 3.33122C9.28456 3.33122 10.4512 3.85788 11.2979 4.69788L9.90456 6.09122C9.69122 6.30455 9.83789 6.66455 10.1379 6.66455H13.6646C13.8512 6.66455 13.9979 6.51788 13.9979 6.33122Z" fill="white"/>
</svg>
