<svg width="16" height="16" viewBox="0 0 16 16" fill="none" xmlns="http://www.w3.org/2000/svg">
<g clip-path="url(#clip0_614_136)">
<path d="M1.3418 8.04395C1.3418 8.31055 1.45801 8.59082 1.64258 8.77539L6.09961 13.2188C6.30469 13.4238 6.55078 13.5264 6.79004 13.5264C7.37109 13.5264 7.76758 13.123 7.76758 12.5898C7.76758 12.2959 7.6377 12.0566 7.45312 11.8789L5.92188 10.3477L4.4043 8.95312L5.90137 9.03516H13.626C14.2412 9.03516 14.6514 8.63184 14.6514 8.04395C14.6514 7.44922 14.2412 7.05273 13.626 7.05273H5.90137L4.41113 7.13477L5.92188 5.74023L7.45312 4.20215C7.6377 4.02441 7.76758 3.79199 7.76758 3.49121C7.76758 2.95801 7.37109 2.55469 6.79004 2.55469C6.55078 2.55469 6.30469 2.65723 6.09277 2.86914L1.64258 7.3125C1.45801 7.49707 1.3418 7.77734 1.3418 8.04395Z" fill="#A4AAB3"/>
</g>
<defs>
<clipPath id="clip0_614_136">
<rect width="16" height="16" fill="white"/>
</clipPath>
</defs>
</svg>
