<svg width="20" height="19" viewBox="0 0 20 19" fill="none" xmlns="http://www.w3.org/2000/svg">
<path d="M10 18.8213C15.0273 18.8213 19.167 14.6816 19.167 9.6543C19.167 4.63574 15.0186 0.487305 9.99121 0.487305C4.97266 0.487305 0.833008 4.63574 0.833008 9.6543C0.833008 14.6816 4.97266 18.8213 10 18.8213ZM7.93457 14.1719C7.58301 13.8203 7.60059 13.293 7.93457 12.9766L11.4678 9.66309L7.93457 6.3584C7.5918 6.04199 7.60059 5.48828 7.95215 5.16309C8.26855 4.86426 8.77832 4.87305 9.12109 5.18945L12.8037 8.64355C13.3838 9.18848 13.3838 10.1465 12.8037 10.6914L9.12109 14.1455C8.81348 14.4355 8.22461 14.4531 7.93457 14.1719Z" fill="#69707A"/>
</svg>
