<svg width="12" height="13" viewBox="0 0 12 13" fill="none" xmlns="http://www.w3.org/2000/svg">
<path d="M4.71143 12.1743C5.14307 12.1743 5.47949 12.0093 5.70801 11.6602L11.624 2.61475C11.7891 2.36084 11.8589 2.12598 11.8589 1.90381C11.8589 1.30713 11.4146 0.875488 10.8052 0.875488C10.3862 0.875488 10.126 1.02783 9.87207 1.42773L4.67969 9.61621L2.04541 6.34717C1.81055 6.06787 1.55664 5.94092 1.20117 5.94092C0.585449 5.94092 0.141113 6.37891 0.141113 6.97559C0.141113 7.24219 0.223633 7.47705 0.452148 7.7373L3.72754 11.7046C4.00049 12.0283 4.30518 12.1743 4.71143 12.1743Z" fill="white"/>
</svg>
