<svg width="10" height="9" viewBox="0 0 10 9" fill="none" xmlns="http://www.w3.org/2000/svg">
<path fill-rule="evenodd" clip-rule="evenodd" d="M9.17063 0.519222C8.9167 0.265295 8.50651 0.265295 8.25259 0.519222L5.06872 3.69657L1.88486 0.512711C1.63093 0.258784 1.22074 0.258784 0.966813 0.512711C0.712885 0.766639 0.712885 1.17683 0.966813 1.43076L4.15068 4.61462L0.966813 7.79848C0.712885 8.05241 0.712885 8.4626 0.966813 8.71653C1.22074 8.97046 1.63093 8.97046 1.88486 8.71653L5.06872 5.53267L8.25259 8.71653C8.50651 8.97046 8.9167 8.97046 9.17063 8.71653C9.42456 8.4626 9.42456 8.05241 9.17063 7.79848L5.98677 4.61462L9.17063 1.43076C9.41805 1.18334 9.41805 0.766639 9.17063 0.519222Z" fill="#3C4043"/>
</svg>
