<svg width="18" height="16" viewBox="0 0 18 16" fill="none" xmlns="http://www.w3.org/2000/svg">
<path d="M2.96875 15.9375H15.0234C16.4141 15.9375 17.3047 14.9141 17.3047 13.6562C17.3047 13.2734 17.2031 12.875 16.9922 12.5L10.9531 1.97656C10.5234 1.21094 9.76562 0.828125 9 0.828125C8.22656 0.828125 7.46875 1.21875 7.03906 1.97656L1 12.5078C0.789062 12.875 0.6875 13.2734 0.6875 13.6562C0.6875 14.9141 1.57812 15.9375 2.96875 15.9375ZM9.00781 10.4844C8.50781 10.4844 8.21875 10.2031 8.20312 9.70312L8.08594 6.00781C8.0625 5.48438 8.4375 5.11719 9 5.11719C9.54688 5.11719 9.9375 5.48438 9.91406 6.00781L9.78906 9.69531C9.77344 10.2109 9.49219 10.4844 9.00781 10.4844ZM9.00781 13.2266C8.4375 13.2266 7.98438 12.8438 7.98438 12.2969C7.98438 11.75 8.4375 11.3594 9.00781 11.3594C9.57812 11.3594 10.0234 11.75 10.0234 12.2969C10.0234 12.8516 9.57031 13.2266 9.00781 13.2266Z" fill="#F12858"/>
</svg>
