<svg width="16" height="16" viewBox="0 0 16 16" fill="none" xmlns="http://www.w3.org/2000/svg">
<g clip-path="url(#clip0_330_3818)">
<path d="M3.20117 9.88965C4.00098 9.88965 4.68018 9.21045 4.68018 8.42334C4.68018 7.5918 4.03906 6.95703 3.20117 6.95703C2.39502 6.95703 1.73486 7.61084 1.73486 8.42334C1.73486 9.21045 2.39502 9.88965 3.20117 9.88965ZM7.99365 9.88965C8.78711 9.88965 9.45996 9.21045 9.45996 8.42334C9.45996 7.5918 8.8252 6.95703 7.99365 6.95703C7.1875 6.95703 6.53369 7.61084 6.53369 8.42334C6.53369 9.21045 7.1875 9.88965 7.99365 9.88965ZM12.7861 9.88965C13.5796 9.88965 14.2588 9.21045 14.2588 8.42334C14.2588 7.5918 13.624 6.95703 12.7861 6.95703C11.9736 6.95703 11.3135 7.61084 11.3135 8.42334C11.3135 9.21045 11.9736 9.88965 12.7861 9.88965Z" fill="#A4AAB3"/>
</g>
<defs>
<clipPath id="clip0_330_3818">
<rect width="16" height="16" fill="white"/>
</clipPath>
</defs>
</svg>
