<svg width="16" height="14" viewBox="0 0 16 14" fill="none" xmlns="http://www.w3.org/2000/svg">
<path d="M8.86133 13.4902C9.25098 13.4902 9.56543 13.333 9.94141 12.9844L15.3691 7.90527C15.6426 7.65234 15.752 7.33105 15.752 7.06445C15.752 6.78418 15.6426 6.4834 15.3691 6.22363L9.94141 1.17871C9.52441 0.795898 9.25098 0.638672 8.86816 0.638672C8.28711 0.638672 7.85645 1.09668 7.85645 1.6709V4.02246H7.70605C3.09863 4.02246 0.890625 6.98242 0.890625 11.8906C0.890625 12.916 1.27344 13.4424 1.82031 13.4424C2.22363 13.4424 2.5791 13.3057 2.85938 12.7656C3.86426 10.9131 5.2998 10.1406 7.70605 10.1406H7.85645V12.4922C7.85645 13.0664 8.28711 13.4902 8.86133 13.4902Z" fill="#69707A"/>
</svg>
