<svg width="16" height="16" viewBox="0 0 16 16" fill="none" xmlns="http://www.w3.org/2000/svg">
<g clip-path="url(#clip0_404_618)">
<path d="M2.03223 13.2734C2.03223 13.875 2.20085 14.3398 2.53809 14.668C2.87988 14.9961 3.35612 15.1602 3.9668 15.1602H7.20703V9.39062H2.03223V13.2734ZM8.79297 15.1602H12.0332C12.6439 15.1602 13.1201 14.9961 13.4619 14.668C13.8037 14.3398 13.9746 13.875 13.9746 13.2734V9.39062H8.79297V15.1602ZM1.13672 7.14844C1.13672 7.55404 1.25065 7.86393 1.47852 8.07812C1.70638 8.28776 2.01628 8.39258 2.4082 8.39258H7.20703V4.29102H6.24316C5.74186 4.29102 5.35449 4.16569 5.08105 3.91504C4.81217 3.66439 4.67773 3.35677 4.67773 2.99219C4.67773 2.65039 4.78255 2.37695 4.99219 2.17188C5.20182 1.96224 5.48438 1.85742 5.83984 1.85742C6.2181 1.85742 6.53939 2.00326 6.80371 2.29492C7.07259 2.58203 7.20703 2.94889 7.20703 3.39551V4.29102H8.79297V3.39551C8.79297 2.94889 8.92741 2.58203 9.19629 2.29492C9.46517 2.00326 9.78646 1.85742 10.1602 1.85742C10.5202 1.85742 10.8027 1.96224 11.0078 2.17188C11.2174 2.37695 11.3223 2.65039 11.3223 2.99219C11.3223 3.35677 11.1855 3.66439 10.9121 3.91504C10.6432 4.16569 10.2581 4.29102 9.75684 4.29102H8.79297V8.39258H13.5918C13.9883 8.39258 14.2982 8.28776 14.5215 8.07812C14.7493 7.86393 14.8633 7.55404 14.8633 7.14844V5.84961C14.8633 5.33919 14.7243 4.95182 14.4463 4.6875C14.1683 4.42318 13.7764 4.29102 13.2705 4.29102H12.2998C12.4958 4.09505 12.6484 3.86719 12.7578 3.60742C12.8672 3.34766 12.9219 3.0651 12.9219 2.75977C12.9219 2.28581 12.8057 1.86426 12.5732 1.49512C12.3454 1.12598 12.0378 0.836589 11.6504 0.626953C11.263 0.417318 10.8346 0.3125 10.3652 0.3125C9.81836 0.3125 9.32617 0.467448 8.88867 0.777344C8.45573 1.08724 8.15951 1.52702 8 2.09668C7.84049 1.52702 7.54199 1.08724 7.10449 0.777344C6.67155 0.467448 6.18164 0.3125 5.63477 0.3125C5.16081 0.3125 4.73014 0.417318 4.34277 0.626953C3.95996 0.836589 3.65234 1.12598 3.41992 1.49512C3.19206 1.86426 3.07812 2.28581 3.07812 2.75977C3.07812 3.0651 3.13281 3.34766 3.24219 3.60742C3.35612 3.86719 3.51107 4.09505 3.70703 4.29102H2.72949C2.2373 4.29102 1.84766 4.42318 1.56055 4.6875C1.27799 4.95182 1.13672 5.33919 1.13672 5.84961V7.14844Z" fill="#69707A"/>
</g>
<defs>
<clipPath id="clip0_404_618">
<rect width="16" height="16" fill="white"/>
</clipPath>
</defs>
</svg>
