<svg width="16" height="17" viewBox="0 0 16 17" fill="none" xmlns="http://www.w3.org/2000/svg">
<path d="M8.00098 7.0459V10.1441H12.3073C12.1182 11.1405 11.5507 11.9841 10.6997 12.5514L13.2966 14.566C14.8096 13.1696 15.6825 11.1187 15.6825 8.68234C15.6825 8.11508 15.6316 7.56957 15.537 7.04599L8.00098 7.0459Z" fill="#4285F4"/>
<path d="M3.51728 10.0225L2.93158 10.4707L0.858398 12.0852C2.17503 14.6961 4.87356 16.4998 8.00144 16.4998C10.1618 16.4998 11.9731 15.7871 13.297 14.5653L10.7001 12.5507C9.98726 13.0307 9.07798 13.3216 8.00144 13.3216C5.92103 13.3216 4.15345 11.918 3.52055 10.0271L3.51728 10.0225Z" fill="#34A853"/>
<path d="M0.858294 4.91406C0.312758 5.99038 0 7.20495 0 8.49947C0 9.794 0.312758 11.0086 0.858294 12.0849C0.858294 12.0921 3.5207 10.0194 3.5207 10.0194C3.36067 9.53943 3.26608 9.03037 3.26608 8.49939C3.26608 7.96841 3.36067 7.45935 3.5207 6.97935L0.858294 4.91406Z" fill="#FBBC05"/>
<path d="M8.00161 3.68546C9.18004 3.68546 10.2275 4.09272 11.064 4.87819L13.3554 2.5873C11.966 1.29278 10.1621 0.5 8.00161 0.5C4.87372 0.5 2.17503 2.29636 0.858398 4.91456L3.52072 6.98002C4.15354 5.08908 5.92119 3.68546 8.00161 3.68546Z" fill="#EA4335"/>
</svg>
