<svg width="21" height="21" viewBox="0 0 21 21" fill="none" xmlns="http://www.w3.org/2000/svg">
<path fill-rule="evenodd" clip-rule="evenodd" d="M10.328 0.773084C10.0198 0.730347 9.69543 0.819213 9.44652 1.04448L0.563621 9.08355C0.118955 9.48597 0.0829989 10.1721 0.483165 10.6188C0.88621 11.0687 1.57831 11.1049 2.02617 10.6996L2.69458 10.0947V18.8136V19.3117C2.69458 20.2431 3.44966 20.9982 4.3811 20.9982H4.86861H15.7361H16.2226C17.154 20.9982 17.9091 20.2431 17.9091 19.3117V18.8136V10.0473L18.6299 10.6996C19.0777 11.1049 19.7698 11.0687 20.1729 10.6188C20.573 10.1721 20.5371 9.48597 20.0924 9.08355L11.2095 1.04448C10.9606 0.819213 10.6363 0.730347 10.328 0.773084ZM4.86861 8.12719V9.57704V11.192V11.2636V15.4405V17.6252V17.6967V18.8136H5.99286H6.06763H8.24166H12.3631H14.5361H14.6108H15.7361V17.6964V17.6252V15.4405V11.2636V11.1923V9.57704V8.08077L10.328 3.1864L4.86861 8.12719Z" fill="white"/>
</svg>
