<svg width="15" height="15" viewBox="0 0 15 15" fill="none" xmlns="http://www.w3.org/2000/svg">
<path fill-rule="evenodd" clip-rule="evenodd" d="M7.46802 0.790254C7.25882 0.761248 7.03868 0.821561 6.86975 0.974448L0.840996 6.4305C0.539204 6.70362 0.514802 7.16926 0.786392 7.47243C1.05994 7.77778 1.52965 7.8024 1.83362 7.52731L2.2894 7.11483V13.0341V13.3722C2.2894 14.0043 2.80186 14.5168 3.43403 14.5168H3.76489H11.1406H11.4708C12.1029 14.5168 12.6154 14.0043 12.6154 13.3722V13.0341V7.08654L13.1024 7.52731C13.4064 7.8024 13.8761 7.77778 14.1496 7.47243C14.4212 7.16926 14.3968 6.70362 14.095 6.4305L8.06629 0.974448C7.89736 0.821561 7.67722 0.761248 7.46802 0.790254ZM3.76489 5.7795V6.76536V7.86144V7.90999V10.7449V12.2275V12.2761V13.0341H4.52792H4.57865H6.05415H8.85134H10.3261H10.3769H11.1406V12.2759V12.2275V10.7449V7.90999V7.86165V6.76536V5.75185L7.46802 2.42815L3.76489 5.7795Z" fill="#5F6368"/>
</svg>
