<svg width="16" height="16" viewBox="0 0 16 16" fill="none" xmlns="http://www.w3.org/2000/svg">
<g clip-path="url(#clip0_1204_817)">
<path d="M8.68359 5.02246L7.41211 6.29395C7.74935 6.3304 8.05469 6.41016 8.32812 6.5332C8.60612 6.65169 8.83626 6.80436 9.01855 6.99121C9.3877 7.35579 9.63379 7.75911 9.75684 8.20117C9.87988 8.63867 9.87988 9.07617 9.75684 9.51367C9.63835 9.95117 9.39681 10.3522 9.03223 10.7168L6.69434 13.0479C6.32975 13.4124 5.92871 13.654 5.49121 13.7725C5.05371 13.8955 4.61621 13.8955 4.17871 13.7725C3.74121 13.654 3.34017 13.4124 2.97559 13.0479C2.60645 12.6787 2.36035 12.2754 2.2373 11.8379C2.11426 11.3958 2.11198 10.9583 2.23047 10.5254C2.35352 10.0879 2.59733 9.68457 2.96191 9.31543L3.84375 8.44043C3.71159 8.13965 3.62272 7.80469 3.57715 7.43555C3.53613 7.06641 3.56576 6.71322 3.66602 6.37598L1.7793 8.24219C1.19596 8.82096 0.806315 9.46354 0.610352 10.1699C0.418945 10.8763 0.421224 11.5827 0.617188 12.2891C0.813151 12.9954 1.2028 13.6403 1.78613 14.2236C2.37402 14.8161 3.02116 15.208 3.72754 15.3994C4.43392 15.5954 5.13802 15.5954 5.83984 15.3994C6.54622 15.2035 7.1888 14.8161 7.76758 14.2373L10.2148 11.79C10.7982 11.2113 11.1855 10.5687 11.377 9.8623C11.5729 9.15592 11.5729 8.44954 11.377 7.74316C11.1855 7.03678 10.7959 6.39193 10.208 5.80859C10.0348 5.63542 9.81836 5.48047 9.55859 5.34375C9.29883 5.20247 9.00716 5.09538 8.68359 5.02246ZM7.31641 11.0107L8.58105 9.74609C8.24382 9.70508 7.93848 9.62533 7.66504 9.50684C7.3916 9.38379 7.16146 9.23112 6.97461 9.04883C6.60547 8.67969 6.35938 8.27637 6.23633 7.83887C6.11328 7.39681 6.11328 6.95931 6.23633 6.52637C6.35938 6.08887 6.60319 5.68783 6.96777 5.32324L9.29883 2.99219C9.66797 2.62305 10.0713 2.37923 10.5088 2.26074C10.9463 2.1377 11.3815 2.1377 11.8145 2.26074C12.252 2.38379 12.6553 2.6276 13.0244 2.99219C13.389 3.36133 13.6328 3.76465 13.7559 4.20215C13.8789 4.63965 13.8789 5.07715 13.7559 5.51465C13.6374 5.95215 13.3958 6.35319 13.0312 6.71777L12.1562 7.59277C12.2884 7.89811 12.375 8.23535 12.416 8.60449C12.4616 8.96908 12.4342 9.32227 12.334 9.66406L14.2207 7.79102C14.804 7.21224 15.1914 6.57194 15.3828 5.87012C15.5788 5.16374 15.5788 4.45736 15.3828 3.75098C15.1868 3.0446 14.7972 2.39746 14.2139 1.80957C13.6214 1.22168 12.972 0.832031 12.2656 0.640625C11.5638 0.444661 10.8597 0.444661 10.1533 0.640625C9.4515 0.832031 8.80892 1.2194 8.22559 1.80273L5.78516 4.24316C5.20182 4.8265 4.81217 5.47135 4.61621 6.17773C4.4248 6.87956 4.4248 7.58366 4.61621 8.29004C4.81217 8.99642 5.2041 9.64128 5.79199 10.2246C5.96517 10.4023 6.18164 10.5618 6.44141 10.7031C6.70117 10.8398 6.99284 10.9424 7.31641 11.0107Z" fill="#69707A"/>
</g>
<defs>
<clipPath id="clip0_1204_817">
<rect width="16" height="16" fill="white"/>
</clipPath>
</defs>
</svg>
