<svg width="28" height="28" viewBox="0 0 28 28" fill="none" xmlns="http://www.w3.org/2000/svg">
<rect width="28" height="28" rx="14" fill="#F1F3F5"/>
<g clip-path="url(#clip0_330_3790)">
<path d="M7.41699 9.42285H20.5762C20.9932 9.42285 21.3281 9.08789 21.3281 8.6709C21.3281 8.25391 20.9932 7.91895 20.5762 7.91895H7.41699C7 7.91895 6.66504 8.25391 6.66504 8.6709C6.66504 9.08789 7 9.42285 7.41699 9.42285ZM7.41699 13.0049H15.0322C15.4561 13.0049 15.791 12.6699 15.791 12.2529C15.791 11.8359 15.4561 11.501 15.0322 11.501H7.41699C7 11.501 6.66504 11.8359 6.66504 12.2529C6.66504 12.6699 7 13.0049 7.41699 13.0049ZM7.41699 16.5801H20.5762C20.9932 16.5801 21.3281 16.252 21.3281 15.8281C21.3281 15.4111 20.9932 15.0762 20.5762 15.0762H7.41699C7 15.0762 6.66504 15.4111 6.66504 15.8281C6.66504 16.252 7 16.5801 7.41699 16.5801ZM7.41699 20.1621H15.0322C15.4561 20.1621 15.791 19.8271 15.791 19.4102C15.791 18.9932 15.4561 18.6582 15.0322 18.6582H7.41699C7 18.6582 6.66504 18.9932 6.66504 19.4102C6.66504 19.8271 7 20.1621 7.41699 20.1621Z" fill="#69707A"/>
</g>
<defs>
<clipPath id="clip0_330_3790">
<rect width="16" height="16" fill="white" transform="translate(6 6)"/>
</clipPath>
</defs>
</svg>
