<svg width="76" height="52" viewBox="0 0 76 52" fill="none" xmlns="http://www.w3.org/2000/svg">
<path fill-rule="evenodd" clip-rule="evenodd" d="M53.0637 6H22.9352C18.9158 6 16.2621 6.00467 14.2286 6.17081C12.2651 6.33123 11.4138 6.6118 10.9032 6.87195C9.39794 7.63893 8.17409 8.86278 7.4071 10.3681C7.14695 10.8787 6.86639 11.7299 6.70597 13.6934C6.53982 15.7269 6.53516 18.3806 6.53516 22.4V29.6C6.53516 33.6194 6.53982 36.2731 6.70597 38.3066C6.86639 40.2701 7.14695 41.1213 7.4071 41.6319C8.17409 43.1372 9.39794 44.3611 10.9032 45.1281C11.4138 45.3882 12.2651 45.6688 14.2286 45.8292C16.2621 45.9953 18.9158 46 22.9352 46H53.0637C57.0831 46 59.7368 45.9953 61.7703 45.8292C63.7338 45.6688 64.5851 45.3882 65.0957 45.1281C66.601 44.3611 67.8248 43.1372 68.5918 41.6319C68.8519 41.1213 69.1325 40.2701 69.2929 38.3066C69.4591 36.2731 69.4637 33.6194 69.4637 29.6V22.4C69.4637 18.3806 69.4591 15.7269 69.2929 13.6934C69.1325 11.7299 68.8519 10.8787 68.5918 10.3681C67.8248 8.86278 66.601 7.63893 65.0957 6.87195C64.5851 6.6118 63.7338 6.33123 61.7703 6.17081C59.7368 6.00467 57.0831 6 53.0637 6ZM2.06107 7.64413C0.535156 10.6389 0.535156 14.5593 0.535156 22.4V29.6C0.535156 37.4407 0.535156 41.3611 2.06107 44.3559C3.40329 46.9901 5.54502 49.1319 8.17929 50.4741C11.1741 52 15.0944 52 22.9352 52H53.0637C60.9045 52 64.8248 52 67.8196 50.4741C70.4539 49.1319 72.5956 46.9901 73.9378 44.3559C75.4637 41.3611 75.4637 37.4407 75.4637 29.6V22.4C75.4637 14.5593 75.4637 10.6389 73.9378 7.64413C72.5956 5.00986 70.4539 2.86814 67.8196 1.52591C64.8248 0 60.9045 0 53.0637 0H22.9352C15.0944 0 11.1741 0 8.17929 1.52591C5.54502 2.86814 3.40329 5.00986 2.06107 7.64413Z" fill="#222734"/>
<path d="M31.3281 39.7598H44.6582C45.752 39.7598 46.5768 39.4681 47.1328 38.8848C47.6979 38.3014 47.9805 37.4173 47.9805 36.2324V26.0742C47.9805 24.8984 47.6979 24.0234 47.1328 23.4492C46.5768 22.8659 45.752 22.5742 44.6582 22.5742H31.3281C30.2344 22.5742 29.4049 22.8659 28.8398 23.4492C28.2839 24.0234 28.0059 24.8984 28.0059 26.0742V36.2324C28.0059 37.4173 28.2839 38.3014 28.8398 38.8848C29.4049 39.4681 30.2344 39.7598 31.3281 39.7598ZM30.6992 23.8867H33.9395L33.9531 19.293C33.9531 18.3724 34.1309 17.5885 34.4863 16.9414C34.8509 16.2852 35.3385 15.7839 35.9492 15.4375C36.5599 15.0911 37.2389 14.918 37.9863 14.918C38.7337 14.918 39.4128 15.0911 40.0234 15.4375C40.6432 15.7839 41.1354 16.2852 41.5 16.9414C41.8646 17.5885 42.0469 18.3724 42.0469 19.293L42.0332 23.8867H45.2871V19.4707C45.2871 17.8392 44.9544 16.4538 44.2891 15.3145C43.6328 14.166 42.7533 13.291 41.6504 12.6895C40.5475 12.0879 39.3262 11.7871 37.9863 11.7871C36.6556 11.7871 35.4388 12.0879 34.3359 12.6895C33.2331 13.291 32.349 14.166 31.6836 15.3145C31.0273 16.4538 30.6992 17.8392 30.6992 19.4707V23.8867Z" fill="#222734"/>
</svg>
