<svg width="15" height="19" viewBox="0 0 15 19" fill="none" xmlns="http://www.w3.org/2000/svg">
<path fill-rule="evenodd" clip-rule="evenodd" d="M12.4756 6.50536H11.6323V4.81884C11.6323 2.49144 9.7434 0.602539 7.416 0.602539C5.08861 0.602539 3.1997 2.49144 3.1997 4.81884V6.50536H2.35644C1.42886 6.50536 0.669922 7.2643 0.669922 8.19188V16.6245C0.669922 17.5521 1.42886 18.311 2.35644 18.311H12.4756C13.4032 18.311 14.1621 17.5521 14.1621 16.6245V8.19188C14.1621 7.2643 13.4032 6.50536 12.4756 6.50536ZM4.88622 6.50536V4.81884C4.88622 3.41903 6.01619 2.28906 7.416 2.28906C8.81582 2.28906 9.94578 3.41903 9.94578 4.81884V6.50536H4.88622Z" fill="#EAEAEA"/>
</svg>
