<svg width="10" height="13" viewBox="0 0 10 13" fill="none" xmlns="http://www.w3.org/2000/svg">
<path fill-rule="evenodd" clip-rule="evenodd" d="M8.39521 4.35776H7.8229V3.21313C7.8229 1.63355 6.54091 0.351562 4.96133 0.351562C3.38174 0.351562 2.09975 1.63355 2.09975 3.21313V4.35776H1.52744C0.897895 4.35776 0.382812 4.87284 0.382812 5.50239V11.2255C0.382812 11.8551 0.897895 12.3702 1.52744 12.3702H8.39521C9.02476 12.3702 9.53984 11.8551 9.53984 11.2255V5.50239C9.53984 4.87284 9.02476 4.35776 8.39521 4.35776ZM3.24438 4.35776V3.21313C3.24438 2.26309 4.01128 1.49619 4.96133 1.49619C5.91137 1.49619 6.67827 2.26309 6.67827 3.21313V4.35776H3.24438Z" fill="#5F6368"/>
</svg>
