<svg width="32" height="24" viewBox="0 0 32 24" fill="none" xmlns="http://www.w3.org/2000/svg">
<path fill-rule="evenodd" clip-rule="evenodd" d="M7.73954 3.8139H24.2605C25.6641 3.8139 26.5378 3.81622 27.1951 3.86992C27.8177 3.92078 27.9796 4.00252 28.0074 4.01668C28.3575 4.19505 28.6421 4.47967 28.8205 4.82973C28.8346 4.85752 28.9164 5.0195 28.9672 5.64203C29.0209 6.29931 29.0233 7.17303 29.0233 8.57669V15.4232C29.0233 16.8269 29.0209 17.7006 28.9672 18.3579C28.9164 18.9804 28.8346 19.1424 28.8205 19.1702C28.6421 19.5202 28.3575 19.8048 28.0074 19.9832C27.9796 19.9974 27.8177 20.0791 27.1951 20.13C26.5379 20.1837 25.6641 20.186 24.2605 20.186H7.73954C6.33587 20.186 5.46215 20.1837 4.80487 20.13C4.18234 20.0791 4.02036 19.9974 3.99258 19.9832C3.64251 19.8048 3.35789 19.5202 3.17952 19.1702C3.16536 19.1424 3.08362 18.9804 3.03276 18.3579C2.97906 17.7006 2.97674 16.8269 2.97674 15.4232V8.57669C2.97674 7.17303 2.97906 6.29931 3.03276 5.64203C3.08362 5.0195 3.16536 4.85752 3.17952 4.82973C3.35789 4.47967 3.64251 4.19505 3.99258 4.01668C4.02036 4.00252 4.18234 3.92078 4.80487 3.86992C5.46215 3.81622 6.33587 3.8139 7.73954 3.8139ZM0 8.57669C0 5.8676 0 4.51306 0.527224 3.47832C0.990984 2.56814 1.73098 1.82814 2.64116 1.36438C3.6759 0.837158 5.03044 0.837158 7.73954 0.837158H24.2605C26.9696 0.837158 28.3241 0.837158 29.3588 1.36438C30.269 1.82814 31.009 2.56814 31.4728 3.47832C32 4.51306 32 5.8676 32 8.57669V15.4232C32 18.1323 32 19.4868 31.4728 20.5216C31.009 21.4318 30.269 22.1718 29.3588 22.6355C28.3241 23.1627 26.9696 23.1627 24.2605 23.1627H7.73954C5.03044 23.1627 3.6759 23.1627 2.64116 22.6355C1.73098 22.1718 0.990984 21.4318 0.527224 20.5216C0 19.4868 0 18.1323 0 15.4232V8.57669ZM11.7 10.5194C11.2291 9.60619 10.107 9.24759 9.19377 9.71848C8.28052 10.1894 7.92192 11.3114 8.39281 12.2247C11.6583 18.5577 20.7136 18.5577 23.9791 12.2247C24.45 11.3114 24.0914 10.1894 23.1781 9.71848C22.2648 9.24759 21.1428 9.60619 20.6719 10.5194C18.7922 14.1649 13.5797 14.1649 11.7 10.5194Z" fill="#222734"/>
</svg>
