<svg width="12" height="12" viewBox="0 0 12 12" fill="none" xmlns="http://www.w3.org/2000/svg">
<path d="M11.2295 8.60059L11.2227 1.74414C11.2227 1.21094 10.8672 0.848633 10.3271 0.848633H3.46387C2.95801 0.848633 2.58887 1.23145 2.58887 1.68945C2.58887 2.14062 2.97852 2.50977 3.4502 2.50977H5.93164L8.57715 2.41406L7.35352 3.50098L1.04395 9.81738C0.866211 9.99512 0.763672 10.2207 0.763672 10.4395C0.763672 10.8838 1.17383 11.3076 1.63184 11.3076C1.85742 11.3076 2.06934 11.2119 2.25391 11.0273L8.57031 4.71777L9.66406 3.49414L9.55469 6.03711V8.61426C9.55469 9.09277 9.92383 9.48242 10.3818 9.48242C10.8398 9.48242 11.2295 9.09961 11.2295 8.60059Z" fill="#69707A"/>
</svg>
