<svg width="17" height="18" viewBox="0 0 17 18" fill="none" xmlns="http://www.w3.org/2000/svg">
<path d="M10.1953 17.0938C10.8281 17.0938 11.2578 16.6016 11.5547 15.8438L16.7344 2.29688C16.8672 1.95312 16.9375 1.64844 16.9375 1.39062C16.9375 0.796875 16.5625 0.421875 15.9688 0.421875C15.7109 0.421875 15.4062 0.492188 15.0625 0.625L1.46094 5.82812C0.773438 6.09375 0.265625 6.53125 0.265625 7.16406C0.265625 7.92969 0.828125 8.23438 1.60938 8.46875L5.53906 9.67188C6.11719 9.85156 6.46094 9.84375 6.875 9.46875L15.6641 1.36719C15.7812 1.26562 15.9141 1.27344 16 1.35938C16.0859 1.4375 16.0938 1.58594 15.9922 1.69531L7.91406 10.4922C7.5625 10.875 7.52344 11.2656 7.69531 11.8359L8.875 15.6953C9.11719 16.5 9.42188 17.0938 10.1953 17.0938Z" fill="#69707A"/>
</svg>
