<svg width="24" height="24" viewBox="0 0 24 24" fill="none" xmlns="http://www.w3.org/2000/svg">
<path fill-rule="evenodd" clip-rule="evenodd" d="M21.4667 13.7686H13.4356V21.7997C13.4356 22.6831 12.7128 23.4059 11.8294 23.4059C10.946 23.4059 10.2232 22.6831 10.2232 21.7997V13.7686H2.19215C1.30873 13.7686 0.585938 13.0458 0.585938 12.1624C0.585938 11.279 1.30873 10.5562 2.19215 10.5562H10.2232V2.52516C10.2232 1.64174 10.946 0.918945 11.8294 0.918945C12.7128 0.918945 13.4356 1.64174 13.4356 2.52516V10.5562H21.4667C22.3501 10.5562 23.0729 11.279 23.0729 12.1624C23.0729 13.0458 22.3501 13.7686 21.4667 13.7686Z" fill="#BDC1C6"/>
</svg>
