<svg width="20" height="19" viewBox="0 0 20 19" fill="none" xmlns="http://www.w3.org/2000/svg">
<path d="M10 18.8213C15.0273 18.8213 19.167 14.6816 19.167 9.6543C19.167 4.63574 15.0186 0.487305 9.99121 0.487305C4.97266 0.487305 0.833008 4.63574 0.833008 9.6543C0.833008 14.6816 4.97266 18.8213 10 18.8213ZM9.78027 11.4385C9.14746 11.4385 8.7959 11.1484 8.7959 10.5947V10.5068C8.7959 9.72461 9.26172 9.26758 9.91211 8.81055C10.668 8.2832 11.0547 8.01953 11.0547 7.46582C11.0547 6.91211 10.5889 6.50781 9.9209 6.50781C9.41992 6.50781 9.02441 6.72754 8.7168 7.20215L8.59375 7.36914C8.40039 7.62402 8.14551 7.77344 7.79395 7.77344C7.36328 7.77344 6.99414 7.44824 6.99414 6.98242C6.99414 6.80664 7.03809 6.63965 7.09961 6.48145C7.41602 5.60254 8.49707 4.91699 10.0791 4.91699C11.7666 4.91699 13.1641 5.82227 13.1641 7.36035C13.1641 8.40625 12.6104 8.93359 11.6875 9.52246C11.125 9.8916 10.7822 10.1992 10.7295 10.6475C10.7295 10.6738 10.7295 10.7178 10.7207 10.7529C10.6768 11.1396 10.3252 11.4385 9.78027 11.4385ZM9.77148 14.3125C9.13867 14.3125 8.62012 13.873 8.62012 13.2578C8.62012 12.6514 9.12988 12.2031 9.77148 12.2031C10.4131 12.2031 10.9141 12.6426 10.9141 13.2578C10.9141 13.8818 10.4043 14.3125 9.77148 14.3125Z" fill="#69707A"/>
</svg>
