<svg width="28" height="28" viewBox="0 0 28 28" fill="none" xmlns="http://www.w3.org/2000/svg">
<path fill-rule="evenodd" clip-rule="evenodd" d="M24.1624 11.0635V5.11568C24.1624 4.60972 23.5553 4.36237 23.2067 4.72216L21.2054 6.7235C19.1703 4.68843 16.2695 3.51911 13.0988 3.80019C8.38783 4.22744 4.50883 8.01649 3.99163 12.7275C3.31703 18.8215 8.07301 23.9935 14.0433 23.9935C19.2041 23.9935 23.4653 20.1257 24.0837 15.1336C24.1624 14.459 23.634 13.8743 22.9594 13.8743C22.3972 13.8743 21.925 14.2904 21.8575 14.8413C21.374 18.7653 17.9898 21.801 13.9309 21.7448C9.75954 21.6886 6.24033 18.1693 6.17287 13.9868C6.10541 9.60182 9.66959 6.00391 14.0433 6.00391C16.2133 6.00391 18.1809 6.89215 19.6088 8.30882L17.2589 10.6587C16.8991 11.0185 17.1465 11.6256 17.6525 11.6256H23.6002C23.9151 11.6256 24.1624 11.3783 24.1624 11.0635Z" fill="white"/>
</svg>
