<svg width="14" height="15" viewBox="0 0 14 15" fill="none" xmlns="http://www.w3.org/2000/svg">
<path fill-rule="evenodd" clip-rule="evenodd" d="M13.8503 5.73888V1.70216C13.8503 1.35877 13.4382 1.19089 13.2017 1.43508L11.8434 2.79337C10.4622 1.41219 8.49345 0.618579 6.34155 0.80935C3.14422 1.09932 0.511576 3.67092 0.160556 6.86825C-0.297295 11.0042 2.93056 14.5144 6.98254 14.5144C10.4851 14.5144 13.3772 11.8894 13.7969 8.50125C13.8503 8.0434 13.4917 7.6466 13.0338 7.6466C12.6523 7.6466 12.3318 7.92894 12.286 8.30285C11.9579 10.966 9.66097 13.0263 6.90623 12.9882C4.07519 12.95 1.68673 10.5616 1.64094 7.72291C1.59516 4.74687 4.01414 2.305 6.98254 2.305C8.4553 2.305 9.7907 2.90784 10.7598 3.86932L9.16497 5.46417C8.92078 5.70836 9.08866 6.12043 9.43205 6.12043H13.4688C13.6824 6.12043 13.8503 5.95255 13.8503 5.73888Z" fill="#5F6368"/>
</svg>
