<svg width="14" height="15" viewBox="0 0 14 15" fill="none" xmlns="http://www.w3.org/2000/svg">
<path d="M7 14.0122C7.34912 14.0122 7.62842 13.7583 7.6792 13.3965C8.26318 9.1626 8.85352 8.56592 12.9541 8.10254C13.3223 8.05811 13.5952 7.77246 13.5952 7.41699C13.5952 7.06152 13.3223 6.77588 12.9604 6.7251C8.87256 6.21729 8.32031 5.67139 7.6792 1.4375C7.62207 1.07568 7.34277 0.821777 7 0.821777C6.65088 0.821777 6.37158 1.07568 6.31445 1.4375C5.73047 5.67139 5.14648 6.26807 1.0459 6.7251C0.677734 6.76953 0.404785 7.06152 0.404785 7.41699C0.404785 7.77246 0.671387 8.05176 1.03955 8.10254C5.13379 8.66748 5.66064 9.16895 6.31445 13.3965C6.38428 13.7646 6.65723 14.0122 7 14.0122Z" fill="white"/>
</svg>
