<svg width="21" height="21" viewBox="0 0 21 21" fill="none" xmlns="http://www.w3.org/2000/svg">
<path fill-rule="evenodd" clip-rule="evenodd" d="M19.3324 7.23516L13.6097 6.73857L11.3751 1.47707C10.9731 0.519361 9.60154 0.519361 9.19954 1.47707L6.96489 6.75039L1.25409 7.23516C0.213619 7.31792 -0.21203 8.61852 0.58015 9.30429L4.91941 13.0642L3.61881 18.6449C3.38234 19.6617 4.48193 20.4657 5.38053 19.9219L10.2873 16.966L15.1941 19.9337C16.0927 20.4776 17.1923 19.6736 16.9558 18.6567L15.6552 13.0642L19.9945 9.30429C20.7867 8.61852 20.3728 7.31792 19.3324 7.23516ZM10.2903 14.7555L5.84464 17.4395L7.027 12.379L3.10157 8.97381L8.2803 8.52451L10.2903 3.75961L12.3121 8.53634L17.4909 8.98563L13.5654 12.3908L14.7478 17.4513L10.2903 14.7555Z" fill="#5F6368"/>
</svg>
