<svg width="28" height="28" viewBox="0 0 28 28" fill="none" xmlns="http://www.w3.org/2000/svg">
<rect width="28" height="28" rx="14" fill="#FFC700" fill-opacity="0.1"/>
<g clip-path="url(#clip0_330_3837)">
<path d="M14 21.0122C14.3491 21.0122 14.6284 20.7583 14.6792 20.3965C15.2632 16.1626 15.8535 15.5659 19.9541 15.1025C20.3223 15.0581 20.5952 14.7725 20.5952 14.417C20.5952 14.0615 20.3223 13.7759 19.9604 13.7251C15.8726 13.2173 15.3203 12.6714 14.6792 8.4375C14.6221 8.07568 14.3428 7.82178 14 7.82178C13.6509 7.82178 13.3716 8.07568 13.3145 8.4375C12.7305 12.6714 12.1465 13.2681 8.0459 13.7251C7.67773 13.7695 7.40479 14.0615 7.40479 14.417C7.40479 14.7725 7.67139 15.0518 8.03955 15.1025C12.1338 15.6675 12.6606 16.1689 13.3145 20.3965C13.3843 20.7646 13.6572 21.0122 14 21.0122Z" fill="#FFC700"/>
</g>
<defs>
<clipPath id="clip0_330_3837">
<rect width="16" height="16" fill="white" transform="translate(6 6)"/>
</clipPath>
</defs>
</svg>
