<svg width="16" height="16" viewBox="0 0 16 16" fill="none" xmlns="http://www.w3.org/2000/svg">
<path d="M0.576172 10.7715C0.576172 11.5371 0.719727 12.2344 1.00684 12.8633C1.29395 13.4876 1.68359 13.9844 2.17578 14.3535C2.67253 14.7227 3.23535 14.9072 3.86426 14.9072H5.02637C4.40202 14.3923 3.9349 13.7747 3.625 13.0547C3.3151 12.3346 3.16471 11.5485 3.17383 10.6963C3.17839 10.1175 3.23535 9.58431 3.34473 9.09668C3.45866 8.60905 3.61133 8.16243 3.80273 7.75684C3.9987 7.34668 4.22201 6.96615 4.47266 6.61523H3.59082C3.02116 6.61523 2.50846 6.79753 2.05273 7.16211C1.59701 7.52669 1.23698 8.02344 0.972656 8.65234C0.708333 9.28125 0.576172 9.98763 0.576172 10.7715ZM4.26758 10.71C4.26302 11.4118 4.3929 12.0612 4.65723 12.6582C4.92611 13.2507 5.30892 13.7656 5.80566 14.2031C6.30241 14.6452 6.89941 14.987 7.59668 15.2285C8.2985 15.4746 9.0778 15.5999 9.93457 15.6045H10.9258C11.3815 15.609 11.7871 15.5954 12.1426 15.5635C12.5026 15.5316 12.792 15.4906 13.0107 15.4404C13.3617 15.3538 13.6556 15.1966 13.8926 14.9688C14.1296 14.7454 14.248 14.4538 14.248 14.0938C14.248 13.9661 14.2344 13.8499 14.207 13.7451C14.1842 13.6449 14.1523 13.5537 14.1113 13.4717C14.0703 13.4033 14.0794 13.3555 14.1387 13.3281C14.3848 13.2005 14.583 13.0273 14.7334 12.8086C14.8838 12.5898 14.959 12.3392 14.959 12.0566C14.959 11.7331 14.8815 11.4551 14.7266 11.2227C14.6719 11.1452 14.6855 11.0837 14.7676 11.0381C14.9362 10.9196 15.0706 10.7578 15.1709 10.5527C15.2757 10.3477 15.3281 10.1221 15.3281 9.87598C15.3281 9.69368 15.3008 9.52051 15.2461 9.35645C15.196 9.18783 15.1276 9.05111 15.041 8.94629C14.9818 8.88704 14.9863 8.82552 15.0547 8.76172C15.1732 8.65234 15.262 8.51107 15.3213 8.33789C15.3851 8.16471 15.417 7.97559 15.417 7.77051C15.417 7.50618 15.3532 7.26465 15.2256 7.0459C15.1025 6.82715 14.9339 6.65397 14.7197 6.52637C14.5055 6.39876 14.264 6.33496 13.9951 6.33496H11.418C11.1309 6.33496 10.903 6.27116 10.7344 6.14355C10.5658 6.01139 10.4814 5.83366 10.4814 5.61035C10.4814 5.37793 10.543 5.09993 10.666 4.77637C10.7891 4.44824 10.9303 4.09961 11.0898 3.73047C11.2539 3.35677 11.3975 2.98079 11.5205 2.60254C11.6481 2.22428 11.7119 1.86882 11.7119 1.53613C11.7119 1.16243 11.6003 0.863932 11.377 0.640625C11.1582 0.417318 10.8802 0.305664 10.543 0.305664C10.265 0.305664 10.0371 0.389974 9.85938 0.558594C9.68164 0.727214 9.50618 0.975586 9.33301 1.30371C8.79525 2.34733 8.19596 3.30436 7.53516 4.1748C6.87435 5.04525 6.26595 5.84733 5.70996 6.58105C5.37728 7.01855 5.10384 7.44694 4.88965 7.86621C4.68001 8.28092 4.52507 8.71842 4.4248 9.17871C4.32454 9.63444 4.27214 10.1449 4.26758 10.71Z" fill="#69707A"/>
</svg>
