<svg width="16" height="16" viewBox="0 0 16 16" fill="none" xmlns="http://www.w3.org/2000/svg">
<path d="M15.4238 5.34375C15.4238 4.57812 15.278 3.88314 14.9863 3.25879C14.6992 2.62988 14.3073 2.13086 13.8105 1.76172C13.3184 1.39258 12.7601 1.20801 12.1357 1.20801H10.9736C11.598 1.71842 12.0674 2.33594 12.3818 3.06055C12.6963 3.7806 12.8467 4.56673 12.833 5.41895C12.8285 5.99772 12.7669 6.53092 12.6484 7.01855C12.5345 7.50618 12.3796 7.95508 12.1836 8.36523C11.9922 8.77083 11.7712 9.14909 11.5205 9.5H12.4023C12.9766 9.5 13.4915 9.31771 13.9473 8.95312C14.403 8.58398 14.763 8.08496 15.0273 7.45605C15.2917 6.82715 15.4238 6.12305 15.4238 5.34375ZM11.7461 5.39844C11.7598 4.69661 11.6322 4.05176 11.3633 3.46387C11.099 2.87142 10.7161 2.35645 10.2148 1.91895C9.71354 1.48145 9.11198 1.13965 8.41016 0.893555C7.70833 0.647461 6.92676 0.522135 6.06543 0.517578L5.08105 0.510742C4.62077 0.506185 4.21061 0.519857 3.85059 0.551758C3.49512 0.579102 3.20801 0.620117 2.98926 0.674805C2.6429 0.761393 2.34896 0.91862 2.10742 1.14648C1.87044 1.36979 1.75195 1.66146 1.75195 2.02148C1.75195 2.14909 1.76562 2.2653 1.79297 2.37012C1.82031 2.47038 1.85221 2.56152 1.88867 2.64355C1.92969 2.70736 1.92057 2.75521 1.86133 2.78711C1.61523 2.91471 1.41699 3.08789 1.2666 3.30664C1.11621 3.52539 1.04102 3.77376 1.04102 4.05176C1.04102 4.37988 1.12077 4.66016 1.28027 4.89258C1.3304 4.96549 1.31673 5.02702 1.23926 5.07715C1.07064 5.19564 0.933919 5.35742 0.829102 5.5625C0.724284 5.76758 0.671875 5.99316 0.671875 6.23926C0.671875 6.42155 0.69694 6.59701 0.74707 6.76562C0.801758 6.92969 0.872396 7.06413 0.958984 7.16895C1.02279 7.22819 1.01823 7.28971 0.945312 7.35352C0.83138 7.45833 0.742513 7.59961 0.678711 7.77734C0.614909 7.95052 0.583008 8.13965 0.583008 8.34473C0.583008 8.60905 0.644531 8.85059 0.767578 9.06934C0.895182 9.28809 1.06608 9.46126 1.28027 9.58887C1.49902 9.71647 1.74056 9.78027 2.00488 9.78027H4.58887C4.87598 9.78027 5.10384 9.84635 5.27246 9.97852C5.44108 10.1061 5.52539 10.2816 5.52539 10.5049C5.52539 10.7373 5.46159 11.0176 5.33398 11.3457C5.21094 11.6693 5.06738 12.0179 4.90332 12.3916C4.74382 12.7607 4.60254 13.1322 4.47949 13.5059C4.35645 13.8841 4.29492 14.2396 4.29492 14.5723C4.29492 14.9505 4.4043 15.249 4.62305 15.4678C4.84635 15.6911 5.12663 15.8027 5.46387 15.8027C5.7373 15.8027 5.96289 15.7184 6.14062 15.5498C6.31836 15.3857 6.49382 15.1396 6.66699 14.8115C7.20931 13.7633 7.81087 12.8063 8.47168 11.9404C9.13249 11.07 9.74089 10.2656 10.2969 9.52734C10.625 9.08984 10.8939 8.66374 11.1035 8.24902C11.3177 7.83431 11.4749 7.39909 11.5752 6.94336C11.68 6.48307 11.737 5.9681 11.7461 5.39844Z" fill="#69707A"/>
</svg>
