<svg width="4" height="12" viewBox="0 0 4 12" fill="none" xmlns="http://www.w3.org/2000/svg">
<path fill-rule="evenodd" clip-rule="evenodd" d="M2.16669 3C2.99169 3 3.66669 2.325 3.66669 1.5C3.66669 0.675 2.99169 0 2.16669 0C1.34169 0 0.666687 0.675 0.666687 1.5C0.666687 2.325 1.34169 3 2.16669 3ZM2.16669 4.5C1.34169 4.5 0.666687 5.175 0.666687 6C0.666687 6.825 1.34169 7.5 2.16669 7.5C2.99169 7.5 3.66669 6.825 3.66669 6C3.66669 5.175 2.99169 4.5 2.16669 4.5ZM2.16669 9C1.34169 9 0.666687 9.675 0.666687 10.5C0.666687 11.325 1.34169 12 2.16669 12C2.99169 12 3.66669 11.325 3.66669 10.5C3.66669 9.675 2.99169 9 2.16669 9Z" fill="#5F6368"/>
</svg>
