<svg width="18" height="18" viewBox="0 0 18 18" fill="none" xmlns="http://www.w3.org/2000/svg">
<path fill-rule="evenodd" clip-rule="evenodd" d="M12.5836 5.42207C12.3618 5.20023 12.0034 5.20023 11.7816 5.42207L9 8.19795L6.21843 5.41638C5.99659 5.19454 5.63823 5.19454 5.41638 5.41638C5.19454 5.63823 5.19454 5.99659 5.41638 6.21843L8.19795 9L5.41638 11.7816C5.19454 12.0034 5.19454 12.3618 5.41638 12.5836C5.63823 12.8055 5.99659 12.8055 6.21843 12.5836L9 9.80205L11.7816 12.5836C12.0034 12.8055 12.3618 12.8055 12.5836 12.5836C12.8055 12.3618 12.8055 12.0034 12.5836 11.7816L9.80205 9L12.5836 6.21843C12.7998 6.00228 12.7998 5.63823 12.5836 5.42207Z" fill="white"/>
</svg>
