<svg width="20" height="20" viewBox="0 0 20 20" fill="none" xmlns="http://www.w3.org/2000/svg">
<path fill-rule="evenodd" clip-rule="evenodd" d="M15.7143 10.9525H10.9524V15.7144C10.9524 16.2383 10.5238 16.6668 10 16.6668C9.47619 16.6668 9.04762 16.2383 9.04762 15.7144V10.9525H4.28572C3.76191 10.9525 3.33334 10.524 3.33334 10.0002C3.33334 9.47635 3.76191 9.04778 4.28572 9.04778H9.04762V4.28588C9.04762 3.76207 9.47619 3.3335 10 3.3335C10.5238 3.3335 10.9524 3.76207 10.9524 4.28588V9.04778H15.7143C16.2381 9.04778 16.6667 9.47635 16.6667 10.0002C16.6667 10.524 16.2381 10.9525 15.7143 10.9525Z" fill="#BDC1C6"/>
</svg>
