<svg width="14" height="12" viewBox="0 0 14 12" fill="none" xmlns="http://www.w3.org/2000/svg">
<path fill-rule="evenodd" clip-rule="evenodd" d="M7 0.00801481C6.81744 -0.017091 6.62543 0.0356372 6.47803 0.169033L1.21104 4.93569C0.947376 5.17431 0.926058 5.58111 1.16333 5.84597C1.40231 6.11274 1.81268 6.13425 2.07824 5.89392L2.47388 5.53586V10.7049V11.0002C2.47388 11.5525 2.9216 12.0002 3.47388 12.0002H3.76264H10.2064H10.4951C11.0474 12.0002 11.4951 11.5525 11.4951 11.0002V10.7049V5.50782L11.9218 5.89392C12.1873 6.13425 12.5977 6.11274 12.8367 5.84597C13.0739 5.58111 13.0526 5.17431 12.789 4.93569L7.52197 0.169033C7.37457 0.0356372 7.18256 -0.017091 7 0.00801481ZM3.76264 4.36953V5.22822V6.1859V6.22822V8.70491V10.0002V10.0426V10.7049H4.42956H4.47388H5.76264H8.20639H9.49514H9.53947H10.2064V10.0426V10.0002V8.70491V6.22822V6.1859V5.22822V4.3415L7 1.4397L3.76264 4.36953Z" fill="white"/>
</svg>
