<svg width="12" height="12" viewBox="0 0 12 12" fill="none" xmlns="http://www.w3.org/2000/svg">
<path fill-rule="evenodd" clip-rule="evenodd" d="M11.3621 3.84008L7.96896 3.54563L6.64395 0.425896C6.40559 -0.141965 5.59236 -0.141965 5.35399 0.425896L4.02898 3.55264L0.642846 3.84008C0.0259095 3.88915 -0.226473 4.66032 0.243239 5.06694L2.81614 7.29632L2.04497 10.6053C1.90476 11.2083 2.55675 11.685 3.08956 11.3625L5.99897 9.60983L8.90839 11.3695C9.4412 11.692 10.0932 11.2153 9.95297 10.6124L9.1818 7.29632L11.7547 5.06694C12.2244 4.66032 11.979 3.88915 11.3621 3.84008ZM5.99897 8.29884L3.36297 9.89026L4.06404 6.8897L1.73651 4.87064L4.80716 4.60424L5.99897 1.77895L7.19779 4.61125L10.2685 4.87765L7.94092 6.89672L8.64198 9.89727L5.99897 8.29884Z" fill="#5F6368"/>
</svg>
