<svg width="14" height="14" viewBox="0 0 14 14" fill="none" xmlns="http://www.w3.org/2000/svg">
<path fill-rule="evenodd" clip-rule="evenodd" d="M12.7277 1.12907C12.3535 0.754925 11.7491 0.754925 11.375 1.12907L6.68383 5.81065L1.99265 1.11947C1.61851 0.745331 1.01412 0.745331 0.639982 1.11947C0.265839 1.49362 0.265839 2.098 0.639982 2.47214L5.33116 7.16332L0.639982 11.8545C0.265839 12.2286 0.265839 12.833 0.639982 13.2072C1.01412 13.5813 1.61851 13.5813 1.99265 13.2072L6.68383 8.51599L11.375 13.2072C11.7491 13.5813 12.3535 13.5813 12.7277 13.2072C13.1018 12.833 13.1018 12.2286 12.7277 11.8545L8.0365 7.16332L12.7277 2.47214C13.0922 2.1076 13.0922 1.49362 12.7277 1.12907Z" fill="white"/>
</svg>
