<svg width="16" height="16" viewBox="0 0 16 16" fill="none" xmlns="http://www.w3.org/2000/svg">
<g clip-path="url(#clip0_513_1096)">
<path d="M8 6.54559V9.64379H12.3063C12.1172 10.6401 11.5498 11.4838 10.6987 12.0511L13.2956 14.0656C14.8086 12.6693 15.6815 10.6184 15.6815 8.18204C15.6815 7.61478 15.6306 7.06927 15.536 6.54568L8 6.54559Z" fill="#4285F4"/>
<path d="M3.51825 9.52264L2.93256 9.9709L0.859375 11.5854C2.176 14.1963 4.87453 16 8.00242 16C10.1628 16 11.9741 15.2872 13.298 14.0655L10.7011 12.0509C9.98824 12.5309 9.07896 12.8218 8.00242 12.8218C5.92201 12.8218 4.15443 11.4182 3.52152 9.52726L3.51825 9.52264Z" fill="#34A853"/>
<path d="M0.858294 4.41443C0.312758 5.49075 0 6.70531 0 7.99984C0 9.29436 0.312758 10.5089 0.858294 11.5853C0.858294 11.5925 3.5207 9.51979 3.5207 9.51979C3.36067 9.0398 3.26608 8.53074 3.26608 7.99976C3.26608 7.46878 3.36067 6.95972 3.5207 6.47972L0.858294 4.41443Z" fill="#FBBC05"/>
<path d="M8.00258 3.18546C9.18102 3.18546 10.2285 3.59272 11.065 4.37819L13.3564 2.0873C11.967 0.792778 10.1631 0 8.00258 0C4.8747 0 2.176 1.79636 0.859375 4.41456L3.5217 6.48002C4.15452 4.58908 5.92217 3.18546 8.00258 3.18546Z" fill="#EA4335"/>
</g>
<defs>
<clipPath id="clip0_513_1096">
<rect width="16" height="16" fill="white"/>
</clipPath>
</defs>
</svg>
