<svg width="32" height="24" viewBox="0 0 32 24" fill="none" xmlns="http://www.w3.org/2000/svg">
<path fill-rule="evenodd" clip-rule="evenodd" d="M7.73954 3.81366H24.2605C25.6641 3.81366 26.5378 3.81597 27.1951 3.86968C27.8177 3.92054 27.9796 4.00228 28.0074 4.01644C28.3575 4.19481 28.6421 4.47942 28.8205 4.82949C28.8346 4.85728 28.9164 5.01925 28.9672 5.64178C29.0209 6.29906 29.0233 7.17278 29.0233 8.57645V15.423C29.0233 16.8266 29.0209 17.7003 28.9672 18.3576C28.9164 18.9802 28.8346 19.1421 28.8205 19.1699C28.6421 19.52 28.3575 19.8046 28.0074 19.983C27.9796 19.9971 27.8177 20.0789 27.1951 20.1297C26.5379 20.1834 25.6641 20.1858 24.2605 20.1858H7.73954C6.33587 20.1858 5.46215 20.1834 4.80487 20.1297C4.18234 20.0789 4.02036 19.9971 3.99258 19.983C3.64251 19.8046 3.35789 19.52 3.17952 19.1699C3.16536 19.1421 3.08362 18.9802 3.03276 18.3576C2.97906 17.7003 2.97674 16.8266 2.97674 15.423V8.57645C2.97674 7.17278 2.97906 6.29906 3.03276 5.64178C3.08362 5.01925 3.16536 4.85728 3.17952 4.82949C3.35789 4.47942 3.64251 4.19481 3.99258 4.01644C4.02036 4.00228 4.18234 3.92054 4.80487 3.86968C5.46215 3.81597 6.33587 3.81366 7.73954 3.81366ZM0 8.57645C0 5.86736 0 4.51281 0.527224 3.47808C0.990984 2.5679 1.73098 1.8279 2.64116 1.36414C3.6759 0.836914 5.03044 0.836914 7.73954 0.836914H24.2605C26.9696 0.836914 28.3241 0.836914 29.3588 1.36414C30.269 1.8279 31.009 2.5679 31.4728 3.47808C32 4.51281 32 5.86736 32 8.57645V15.423C32 18.1321 32 19.4866 31.4728 20.5213C31.009 21.4315 30.269 22.1715 29.3588 22.6353C28.3241 23.1625 26.9696 23.1625 24.2605 23.1625H7.73954C5.03044 23.1625 3.6759 23.1625 2.64116 22.6353C1.73098 22.1715 0.990984 21.4315 0.527224 20.5213C0 19.4866 0 18.1321 0 15.423V8.57645ZM11.7 10.5192C11.2291 9.60594 10.107 9.24734 9.19377 9.71824C8.28052 10.1891 7.92192 11.3112 8.39281 12.2245C11.6583 18.5575 20.7136 18.5575 23.9791 12.2245C24.45 11.3112 24.0914 10.1891 23.1781 9.71824C22.2648 9.24734 21.1428 9.60594 20.6719 10.5192C18.7922 14.1647 13.5797 14.1647 11.7 10.5192Z" fill="#222734"/>
</svg>
