<svg width="51" height="36" viewBox="0 0 51 36" fill="none" xmlns="http://www.w3.org/2000/svg">
<path fill-rule="evenodd" clip-rule="evenodd" d="M12.3067 4.98333H38.5767C40.8086 4.98333 42.1979 4.98701 43.2431 5.07241C44.233 5.15328 44.4905 5.28326 44.5347 5.30577C45.0914 5.5894 45.5439 6.04197 45.8276 6.59861C45.8501 6.6428 45.9801 6.90035 46.0609 7.89024C46.1463 8.93538 46.15 10.3247 46.15 12.5567V23.4433C46.15 25.6753 46.1463 27.0646 46.0609 28.1098C45.9801 29.0996 45.8501 29.3572 45.8276 29.4014C45.5439 29.958 45.0914 30.4106 44.5347 30.6942C44.4905 30.7167 44.233 30.8467 43.2431 30.9276C42.198 31.013 40.8086 31.0167 38.5767 31.0167H12.3067C10.0747 31.0167 8.68539 31.013 7.64024 30.9276C6.65035 30.8467 6.3928 30.7167 6.34861 30.6942C5.79197 30.4106 5.3394 29.958 5.05577 29.4014C5.03326 29.3572 4.90328 29.0996 4.82241 28.1098C4.73701 27.0646 4.73333 25.6753 4.73333 23.4433V12.5567C4.73333 10.3247 4.73701 8.93538 4.82241 7.89024C4.90328 6.90035 5.03326 6.6428 5.05577 6.59861C5.3394 6.04197 5.79197 5.5894 6.34861 5.30577C6.3928 5.28326 6.65035 5.15328 7.64024 5.07241C8.68538 4.98701 10.0747 4.98333 12.3067 4.98333ZM0 12.5567C0 8.24893 0 6.09506 0.838342 4.44972C1.57577 3.00244 2.75244 1.82577 4.19972 1.08834C5.84506 0.25 7.99893 0.25 12.3067 0.25H38.5767C42.8844 0.25 45.0383 0.25 46.6836 1.08834C48.1309 1.82577 49.3076 3.00244 50.045 4.44972C50.8833 6.09506 50.8833 8.24893 50.8833 12.5567V23.4433C50.8833 27.7511 50.8833 29.9049 50.045 31.5503C49.3076 32.9976 48.1309 34.1742 46.6836 34.9117C45.0383 35.75 42.8844 35.75 38.5767 35.75H12.3067C7.99893 35.75 5.84506 35.75 4.19972 34.9117C2.75244 34.1742 1.57577 32.9976 0.838342 31.5503C0 29.9049 0 27.7511 0 23.4433V12.5567ZM18.6042 15.6456C17.8555 14.1934 16.0713 13.6232 14.6191 14.372C13.1669 15.1208 12.5967 16.905 13.3455 18.3571C18.5379 28.4273 32.9368 28.4273 38.1292 18.3571C38.878 16.905 38.3078 15.1208 36.8556 14.372C35.4035 13.6232 33.6193 14.1934 32.8705 15.6456C29.8816 21.4423 21.5932 21.4423 18.6042 15.6456Z" fill="#222734"/>
</svg>
