<svg width="16" height="16" viewBox="0 0 16 16" fill="none" xmlns="http://www.w3.org/2000/svg">
<g clip-path="url(#clip0_513_1599)">
<path d="M13.2295 10.6006L13.2227 3.74414C13.2227 3.21094 12.8672 2.84863 12.3271 2.84863H5.46387C4.95801 2.84863 4.58887 3.23145 4.58887 3.68945C4.58887 4.14062 4.97852 4.50977 5.4502 4.50977H7.93164L10.5771 4.41406L9.35352 5.50098L3.04395 11.8174C2.86621 11.9951 2.76367 12.2207 2.76367 12.4395C2.76367 12.8838 3.17383 13.3076 3.63184 13.3076C3.85742 13.3076 4.06934 13.2119 4.25391 13.0273L10.5703 6.71777L11.6641 5.49414L11.5547 8.03711V10.6143C11.5547 11.0928 11.9238 11.4824 12.3818 11.4824C12.8398 11.4824 13.2295 11.0996 13.2295 10.6006Z" fill="#69707A"/>
</g>
<defs>
<clipPath id="clip0_513_1599">
<rect width="16" height="16" fill="white"/>
</clipPath>
</defs>
</svg>
