<svg width="19" height="20" viewBox="0 0 19 20" fill="none" xmlns="http://www.w3.org/2000/svg">
<path d="M11.3447 19.4805C12.0566 19.4805 12.54 18.9268 12.874 18.0742L18.7012 2.83398C18.8506 2.44727 18.9297 2.10449 18.9297 1.81445C18.9297 1.14648 18.5078 0.724609 17.8398 0.724609C17.5498 0.724609 17.207 0.803711 16.8203 0.953125L1.51855 6.80664C0.745117 7.10547 0.173828 7.59766 0.173828 8.30957C0.173828 9.1709 0.806641 9.51367 1.68555 9.77734L6.10645 11.1309C6.75684 11.333 7.14355 11.3242 7.60938 10.9023L17.4971 1.78809C17.6289 1.67383 17.7783 1.68262 17.875 1.7793C17.9717 1.86719 17.9805 2.03418 17.8662 2.15723L8.77832 12.0537C8.38281 12.4844 8.33887 12.9238 8.53223 13.5654L9.85938 17.9072C10.1318 18.8125 10.4746 19.4805 11.3447 19.4805Z" fill="#A35AFF"/>
</svg>
