<svg width="50" height="50" viewBox="0 0 50 50" fill="none" xmlns="http://www.w3.org/2000/svg">
<rect width="50" height="50" rx="25" fill="#A35AFF" fill-opacity="0.08"/>
<path d="M26.2183 37.4473C27.1279 37.4473 27.7456 36.7397 28.1724 35.6504L35.6182 16.1768C35.8091 15.6826 35.9102 15.2446 35.9102 14.874C35.9102 14.0205 35.3711 13.4814 34.5176 13.4814C34.147 13.4814 33.709 13.5825 33.2148 13.7734L13.6626 21.2529C12.6743 21.6348 11.9443 22.2637 11.9443 23.1733C11.9443 24.2739 12.7529 24.7119 13.876 25.0488L19.5249 26.7783C20.356 27.0366 20.8501 27.0254 21.4453 26.4863L34.0796 14.8403C34.248 14.6943 34.439 14.7056 34.5625 14.8291C34.686 14.9414 34.6973 15.1548 34.5513 15.312L22.939 27.9575C22.4336 28.5078 22.3774 29.0693 22.6245 29.8892L24.3203 35.437C24.6685 36.5938 25.1064 37.4473 26.2183 37.4473Z" fill="#A35AFF"/>
</svg>
