<svg width="16" height="17" viewBox="0 0 16 17" fill="none" xmlns="http://www.w3.org/2000/svg">
<path fill-rule="evenodd" clip-rule="evenodd" d="M14.5378 9.70535H9.08719V15.156C9.08719 15.7555 8.59663 16.2461 7.99707 16.2461C7.3975 16.2461 6.90694 15.7555 6.90694 15.156V9.70535H1.45633C0.856766 9.70535 0.366211 9.2148 0.366211 8.61523C0.366211 8.01566 0.856766 7.52511 1.45633 7.52511H6.90694V2.0745C6.90694 1.47493 7.3975 0.984375 7.99707 0.984375C8.59663 0.984375 9.08719 1.47493 9.08719 2.0745V7.52511H14.5378C15.1374 7.52511 15.6279 8.01566 15.6279 8.61523C15.6279 9.2148 15.1374 9.70535 14.5378 9.70535Z" fill="#3C4043"/>
</svg>
