<svg width="15" height="14" viewBox="0 0 15 14" fill="none" xmlns="http://www.w3.org/2000/svg">
<path fill-rule="evenodd" clip-rule="evenodd" d="M13.6919 5.17476L9.80802 4.83773L8.29138 1.26679C8.01854 0.616799 7.08769 0.616799 6.81486 1.26679L5.29821 4.84575L1.42234 5.17476C0.71618 5.23093 0.427295 6.11363 0.964942 6.57906L3.90996 9.13087L3.02726 12.9185C2.86677 13.6086 3.61305 14.1543 4.22292 13.7851L7.55312 11.779L10.8833 13.7931C11.4932 14.1623 12.2395 13.6166 12.079 12.9265L11.1963 9.13087L14.1413 6.57906C14.6789 6.11363 14.3981 5.23093 13.6919 5.17476ZM7.55515 10.2784L4.53791 12.0999L5.34037 8.66543L2.67621 6.35435L6.19097 6.04941L7.55515 2.81551L8.92735 6.05744L12.4421 6.36237L9.77796 8.67345L10.5804 12.108L7.55515 10.2784Z" fill="#5F6368"/>
</svg>
